<svg xmlns="http://www.w3.org/2000/svg" width="559" height="1196" viewBox="0 0 559 1196">
    <defs>
        <filter id="a" width="141.7%" height="117.5%" x="-20.9%" y="-8.8%" filterUnits="objectBoundingBox">
            <feOffset in="SourceAlpha" result="shadowOffsetOuter1"/>
            <feGaussianBlur in="shadowOffsetOuter1" result="shadowBlurOuter1" stdDeviation="25"/>
            <feColorMatrix in="shadowBlurOuter1" result="shadowMatrixOuter1" values="0 0 0 0 0 0 0 0 0 0 0 0 0 0 0 0 0 0 0.15 0"/>
            <feMerge>
                <feMergeNode in="shadowMatrixOuter1"/>
                <feMergeNode in="SourceGraphic"/>
            </feMerge>
        </filter>
        <filter id="b" width="119.5%" height="113.2%" x="-9.6%" y="-6.5%" filterUnits="objectBoundingBox">
            <feOffset dy="2" in="SourceAlpha" result="shadowOffsetOuter1"/>
            <feGaussianBlur in="shadowOffsetOuter1" result="shadowBlurOuter1" stdDeviation="2"/>
            <feColorMatrix in="shadowBlurOuter1" result="shadowMatrixOuter1" values="0 0 0 0 0 0 0 0 0 0 0 0 0 0 0 0 0 0 0.5 0"/>
            <feMerge>
                <feMergeNode in="shadowMatrixOuter1"/>
                <feMergeNode in="SourceGraphic"/>
            </feMerge>
        </filter>
        <filter id="c" width="119.5%" height="113.2%" x="-9.6%" y="-6.5%" filterUnits="objectBoundingBox">
            <feOffset dy="2" in="SourceAlpha" result="shadowOffsetOuter1"/>
            <feGaussianBlur in="shadowOffsetOuter1" result="shadowBlurOuter1" stdDeviation="2"/>
            <feColorMatrix in="shadowBlurOuter1" result="shadowMatrixOuter1" values="0 0 0 0 0 0 0 0 0 0 0 0 0 0 0 0 0 0 0.5 0"/>
            <feMerge>
                <feMergeNode in="shadowMatrixOuter1"/>
                <feMergeNode in="SourceGraphic"/>
            </feMerge>
        </filter>
        <filter id="d" width="119.5%" height="113.2%" x="-9.6%" y="-6.5%" filterUnits="objectBoundingBox">
            <feOffset dy="2" in="SourceAlpha" result="shadowOffsetOuter1"/>
            <feGaussianBlur in="shadowOffsetOuter1" result="shadowBlurOuter1" stdDeviation="2"/>
            <feColorMatrix in="shadowBlurOuter1" result="shadowMatrixOuter1" values="0 0 0 0 0 0 0 0 0 0 0 0 0 0 0 0 0 0 0.5 0"/>
            <feMerge>
                <feMergeNode in="shadowMatrixOuter1"/>
                <feMergeNode in="SourceGraphic"/>
            </feMerge>
        </filter>
        <filter id="e" width="119.5%" height="113.2%" x="-9.6%" y="-6.5%" filterUnits="objectBoundingBox">
            <feOffset dy="2" in="SourceAlpha" result="shadowOffsetOuter1"/>
            <feGaussianBlur in="shadowOffsetOuter1" result="shadowBlurOuter1" stdDeviation="2"/>
            <feColorMatrix in="shadowBlurOuter1" result="shadowMatrixOuter1" values="0 0 0 0 0 0 0 0 0 0 0 0 0 0 0 0 0 0 0.5 0"/>
            <feMerge>
                <feMergeNode in="shadowMatrixOuter1"/>
                <feMergeNode in="SourceGraphic"/>
            </feMerge>
        </filter>
        <filter id="f" width="119.5%" height="113.2%" x="-9.6%" y="-6.5%" filterUnits="objectBoundingBox">
            <feOffset dy="2" in="SourceAlpha" result="shadowOffsetOuter1"/>
            <feGaussianBlur in="shadowOffsetOuter1" result="shadowBlurOuter1" stdDeviation="2"/>
            <feColorMatrix in="shadowBlurOuter1" result="shadowMatrixOuter1" values="0 0 0 0 0 0 0 0 0 0 0 0 0 0 0 0 0 0 0.5 0"/>
            <feMerge>
                <feMergeNode in="shadowMatrixOuter1"/>
                <feMergeNode in="SourceGraphic"/>
            </feMerge>
        </filter>
        <filter id="g" width="119.5%" height="113.2%" x="-9.6%" y="-6.5%" filterUnits="objectBoundingBox">
            <feOffset dy="2" in="SourceAlpha" result="shadowOffsetOuter1"/>
            <feGaussianBlur in="shadowOffsetOuter1" result="shadowBlurOuter1" stdDeviation="2"/>
            <feColorMatrix in="shadowBlurOuter1" result="shadowMatrixOuter1" values="0 0 0 0 0 0 0 0 0 0 0 0 0 0 0 0 0 0 0.5 0"/>
            <feMerge>
                <feMergeNode in="shadowMatrixOuter1"/>
                <feMergeNode in="SourceGraphic"/>
            </feMerge>
        </filter>
    </defs>
    <g fill="none" fill-rule="evenodd">
        <g filter="url(#a)" transform="translate(50 50)">
            <path fill="#666" d="M.383 10.001C.383 4.478 4.854 0 10.375 0h439.25c5.519 0 9.992 4.477 9.992 10.001v30.565H.383V10z"/>
            <path fill="#FFF" d="M0 40.566h459.235v1041.992c0 7.457-6.038 13.502-13.496 13.502H13.495c-7.453 0-13.495-6.05-13.495-13.502V40.566z"/>
            <g fill="#FFF" transform="translate(18.37 13.777)">
                <circle cx="6.697" cy="6.697" r="6.697"/>
                <circle cx="26.215" cy="6.697" r="6.697"/>
                <circle cx="46.115" cy="6.697" r="6.697"/>
            </g>
        </g>
        <path fill="#F0EDE3" d="M50 675.324h459.235v274.775H50z"/>
        <path fill="#D8D8D8" d="M74.35 137.255H484.6v203.594H74.35z"/>
        <g fill="#BCBEC0" opacity=".5">
            <path d="M332.697 270.012l-27.86-33.83a5.186 5.186 0 0 0-3.98-1.838c-1.53 0-3.062.766-3.98 1.837l-3.674 4.44c-.153.153-.306.459-.46.612-.918.918-2.142 1.53-3.52 1.53-1.378 0-2.45-.459-3.368-1.377-.306-.306-.612-.612-.765-.918l-13.624-16.533c-1.225-1.53-3.062-2.45-5.205-2.45-2.143 0-3.98.92-5.204 2.45l-36.433 44.24-.612.765c-.46.765-.766 1.53-.766 2.45 0 2.449 1.99 4.439 4.44 4.439H330.554c1.837 0 3.368-1.531 3.368-3.368 0-.765-.153-1.378-.613-1.99l-.612-.46zM324.737 201.433c-6.123 0-11.175 5.051-11.175 11.174 0 6.123 5.052 11.175 11.175 11.175 6.123 0 11.175-5.052 11.175-11.175 0-6.123-5.052-11.174-11.175-11.174z"/>
        </g>
        <g filter="url(#b)" transform="translate(74.493 721.248)">
            <path fill="#D8D8D8" d="M0 .266h125.415v72.872H0z"/>
            <path fill="#FFF" d="M0 73.138h125.415V183.51H0z"/>
            <path fill="#C7C7C7" d="M22.339 84.574h80.846v7.447H22.339z"/>
            <path fill="#DADADA" d="M9.042 99.999h107.44v6.277H9.042zM9.042 109.623h107.44v6.277H9.042zM9.042 119.247h107.44v6.277H9.042zM9.042 128.872h107.44v6.277H9.042zM9.042 138.496h107.44v6.277H9.042zM9.042 148.12H54.37v6.277H9.042z"/>
            <g fill="#BCBEC0" opacity=".5">
                <path d="M83.778 49.054l-11.11-13.497a2.068 2.068 0 0 0-1.588-.733c-.61 0-1.221.305-1.587.733l-1.466 1.77c-.06.062-.122.184-.183.245-.366.367-.854.61-1.404.61-.55 0-.977-.182-1.343-.549-.122-.122-.244-.244-.305-.366l-5.433-6.596c-.489-.61-1.221-.977-2.076-.977s-1.587.366-2.076.977l-14.53 17.65-.243.306c-.183.305-.305.61-.305.977 0 .977.793 1.77 1.77 1.77h41.025c.732 0 1.342-.61 1.342-1.343 0-.305-.06-.55-.244-.794l-.244-.183zM80.603 21.693c-2.442 0-4.456 2.015-4.456 4.458s2.014 4.459 4.456 4.459c2.442 0 4.457-2.016 4.457-4.459 0-2.443-2.015-4.458-4.457-4.458z"/>
            </g>
        </g>
        <g filter="url(#c)" transform="translate(216.855 721.248)">
            <path fill="#D8D8D8" d="M0 .266h125.415v72.872H0z"/>
            <path fill="#FFF" d="M0 73.138h125.415V183.51H0z"/>
            <path fill="#C7C7C7" d="M22.339 84.574h80.846v7.447H22.339z"/>
            <path fill="#DADADA" d="M9.042 99.999h107.44v6.277H9.042zM9.042 109.623h107.44v6.277H9.042zM9.042 119.247h107.44v6.277H9.042zM9.042 128.872h107.44v6.277H9.042zM9.042 138.496h107.44v6.277H9.042zM9.042 148.12H54.37v6.277H9.042z"/>
            <g fill="#BCBEC0" opacity=".5">
                <path d="M83.778 49.054l-11.11-13.497a2.068 2.068 0 0 0-1.588-.733c-.61 0-1.221.305-1.587.733l-1.466 1.77c-.06.062-.122.184-.183.245-.366.367-.854.61-1.404.61-.55 0-.977-.182-1.343-.549-.122-.122-.244-.244-.305-.366l-5.433-6.596c-.489-.61-1.221-.977-2.076-.977s-1.587.366-2.076.977l-14.53 17.65-.243.306c-.183.305-.305.61-.305.977 0 .977.793 1.77 1.77 1.77h41.025c.732 0 1.342-.61 1.342-1.343 0-.305-.06-.55-.244-.794l-.244-.183zM80.603 21.693c-2.442 0-4.456 2.015-4.456 4.458s2.014 4.459 4.456 4.459c2.442 0 4.457-2.016 4.457-4.459 0-2.443-2.015-4.458-4.457-4.458z"/>
            </g>
        </g>
        <g filter="url(#d)" transform="translate(359.218 721.248)">
            <path fill="#D8D8D8" d="M0 .266h125.415v72.872H0z"/>
            <path fill="#FFF" d="M0 73.138h125.415V183.51H0z"/>
            <path fill="#C7C7C7" d="M22.339 84.574h80.846v7.447H22.339z"/>
            <path fill="#DADADA" d="M9.042 99.999h107.44v6.277H9.042zM9.042 109.623h107.44v6.277H9.042zM9.042 119.247h107.44v6.277H9.042zM9.042 128.872h107.44v6.277H9.042zM9.042 138.496h107.44v6.277H9.042zM9.042 148.12H54.37v6.277H9.042z"/>
            <g fill="#BCBEC0" opacity=".5">
                <path d="M83.778 49.054l-11.11-13.497a2.068 2.068 0 0 0-1.588-.733c-.61 0-1.221.305-1.587.733l-1.466 1.77c-.06.062-.122.184-.183.245-.366.367-.854.61-1.404.61-.55 0-.977-.182-1.343-.549-.122-.122-.244-.244-.305-.366l-5.433-6.596c-.489-.61-1.221-.977-2.076-.977s-1.587.366-2.076.977l-14.53 17.65-.243.306c-.183.305-.305.61-.305.977 0 .977.793 1.77 1.77 1.77h41.025c.732 0 1.342-.61 1.342-1.343 0-.305-.06-.55-.244-.794l-.244-.183zM80.603 21.693c-2.442 0-4.456 2.015-4.456 4.458s2.014 4.459 4.456 4.459c2.442 0 4.457-2.016 4.457-4.459 0-2.443-2.015-4.458-4.457-4.458z"/>
            </g>
        </g>
        <g filter="url(#e)" transform="translate(74.493 443.411)">
            <path fill="#D8D8D8" d="M0 .266h125.415v72.872H0z"/>
            <path fill="#FFF" d="M0 73.138h125.415V183.51H0z"/>
            <path fill="#C7C7C7" d="M22.339 84.574h80.846v7.447H22.339z"/>
            <path fill="#DADADA" d="M9.042 99.999h107.44v6.277H9.042zM9.042 109.623h107.44v6.277H9.042zM9.042 119.247h107.44v6.277H9.042zM9.042 128.872h107.44v6.277H9.042zM9.042 138.496h107.44v6.277H9.042zM9.042 148.12H54.37v6.277H9.042z"/>
            <g fill="#BCBEC0" opacity=".5">
                <path d="M83.778 49.054l-11.11-13.497a2.068 2.068 0 0 0-1.588-.733c-.61 0-1.221.305-1.587.733l-1.466 1.77c-.06.062-.122.184-.183.245-.366.367-.854.61-1.404.61-.55 0-.977-.182-1.343-.549-.122-.122-.244-.244-.305-.366l-5.433-6.596c-.489-.61-1.221-.977-2.076-.977s-1.587.366-2.076.977l-14.53 17.65-.243.306c-.183.305-.305.61-.305.977 0 .977.793 1.77 1.77 1.77h41.025c.732 0 1.342-.61 1.342-1.343 0-.305-.06-.55-.244-.794l-.244-.183zM80.603 21.693c-2.442 0-4.456 2.015-4.456 4.458s2.014 4.459 4.456 4.459c2.442 0 4.457-2.016 4.457-4.459 0-2.443-2.015-4.458-4.457-4.458z"/>
            </g>
        </g>
        <g filter="url(#f)" transform="translate(216.855 443.411)">
            <path fill="#D8D8D8" d="M0 .266h125.415v72.872H0z"/>
            <path fill="#FFF" d="M0 73.138h125.415V183.51H0z"/>
            <path fill="#C7C7C7" d="M22.339 84.574h80.846v7.447H22.339z"/>
            <path fill="#DADADA" d="M9.042 99.999h107.44v6.277H9.042zM9.042 109.623h107.44v6.277H9.042zM9.042 119.247h107.44v6.277H9.042zM9.042 128.872h107.44v6.277H9.042zM9.042 138.496h107.44v6.277H9.042zM9.042 148.12H54.37v6.277H9.042z"/>
            <g fill="#BCBEC0" opacity=".5">
                <path d="M83.778 49.054l-11.11-13.497a2.068 2.068 0 0 0-1.588-.733c-.61 0-1.221.305-1.587.733l-1.466 1.77c-.06.062-.122.184-.183.245-.366.367-.854.61-1.404.61-.55 0-.977-.182-1.343-.549-.122-.122-.244-.244-.305-.366l-5.433-6.596c-.489-.61-1.221-.977-2.076-.977s-1.587.366-2.076.977l-14.53 17.65-.243.306c-.183.305-.305.61-.305.977 0 .977.793 1.77 1.77 1.77h41.025c.732 0 1.342-.61 1.342-1.343 0-.305-.06-.55-.244-.794l-.244-.183zM80.603 21.693c-2.442 0-4.456 2.015-4.456 4.458s2.014 4.459 4.456 4.459c2.442 0 4.457-2.016 4.457-4.459 0-2.443-2.015-4.458-4.457-4.458z"/>
            </g>
        </g>
        <g filter="url(#g)" transform="translate(359.218 443.411)">
            <path fill="#D8D8D8" d="M0 .266h125.415v72.872H0z"/>
            <path fill="#FFF" d="M0 73.138h125.415V183.51H0z"/>
            <path fill="#C7C7C7" d="M22.339 84.574h80.846v7.447H22.339z"/>
            <path fill="#DADADA" d="M9.042 99.999h107.44v6.277H9.042zM9.042 109.623h107.44v6.277H9.042zM9.042 119.247h107.44v6.277H9.042zM9.042 128.872h107.44v6.277H9.042zM9.042 138.496h107.44v6.277H9.042zM9.042 148.12H54.37v6.277H9.042z"/>
            <g fill="#BCBEC0" opacity=".5">
                <path d="M83.778 49.054l-11.11-13.497a2.068 2.068 0 0 0-1.588-.733c-.61 0-1.221.305-1.587.733l-1.466 1.77c-.06.062-.122.184-.183.245-.366.367-.854.61-1.404.61-.55 0-.977-.182-1.343-.549-.122-.122-.244-.244-.305-.366l-5.433-6.596c-.489-.61-1.221-.977-2.076-.977s-1.587.366-2.076.977l-14.53 17.65-.243.306c-.183.305-.305.61-.305.977 0 .977.793 1.77 1.77 1.77h41.025c.732 0 1.342-.61 1.342-1.343 0-.305-.06-.55-.244-.794l-.244-.183zM80.603 21.693c-2.442 0-4.456 2.015-4.456 4.458s2.014 4.459 4.456 4.459c2.442 0 4.457-2.016 4.457-4.459 0-2.443-2.015-4.458-4.457-4.458z"/>
            </g>
        </g>
        <path fill="#C7C7C7" d="M203.079 377.587h153.078v13.777H203.079z"/>
        <path fill="#E3E3E3" d="M164.809 399.018h229.617v7.654H164.809z"/>
        <g fill="#D8D8D8">
            <path d="M368.403 105.108h22.962v5.74h-22.962zM401.698 105.108h24.875v5.74h-24.875zM436.905 105.108h26.789v5.74h-26.79zM474.792 105.108h22.962v5.74h-22.962z"/>
        </g>
    </g>
</svg>
