<svg xmlns="http://www.w3.org/2000/svg" xmlns:xlink="http://www.w3.org/1999/xlink" width="415" height="415" viewBox="0 0 415 415">
    <defs>
        <path id="a" d="M183.5 367C284.844 367 367 284.844 367 183.5S284.844 0 183.5 0 0 82.156 0 183.5 82.156 367 183.5 367z"/>
        <filter id="b" width="120.2%" height="120.2%" x="-10.1%" y="-9.5%" filterUnits="objectBoundingBox">
            <feOffset dy="2" in="SourceAlpha" result="shadowOffsetOuter1"/>
            <feGaussianBlur in="shadowOffsetOuter1" result="shadowBlurOuter1" stdDeviation="12"/>
            <feColorMatrix in="shadowBlurOuter1" values="0 0 0 0 0 0 0 0 0 0 0 0 0 0 0 0 0 0 0.176460598 0"/>
        </filter>
    </defs>
    <g fill="none" fill-rule="evenodd">
        <g transform="translate(24 22)">
            <mask id="c" fill="#fff">
                <use xlink:href="#a"/>
            </mask>
            <use fill="#000" filter="url(#b)" xlink:href="#a"/>
            <use fill="#F0EDE3" xlink:href="#a"/>
            <path fill="#FFF" d="M183 183v399L561-12.295z" mask="url(#c)"/>
            <path fill="#D8D8D8" d="M183 183.385L388 76 337.905-85.012z" mask="url(#c)"/>
            <path fill="#EF3340" d="M183 184L288.6.287 271.945-24z" mask="url(#c)"/>
            <path fill="#A4343A" d="M183 184l86-201-6-7z" mask="url(#c)"/>
        </g>
        <text fill="#A5A5A5" font-family="HelveticaNeue, Helvetica Neue" font-size="18" transform="translate(24 6)">
            <tspan x="298" y="285">25%</tspan>
        </text>
        <text fill="#A5A5A5" font-family="HelveticaNeue, Helvetica Neue" font-size="18" transform="translate(24 6)">
            <tspan x="23" y="205">60%</tspan>
        </text>
        <text fill="#A5A5A5" font-family="HelveticaNeue, Helvetica Neue" font-size="18" transform="translate(24 6)">
            <tspan x="278" y="102">10%</tspan>
        </text>
        <text fill="#A5A5A5" font-family="HelveticaNeue, Helvetica Neue" font-size="18" transform="translate(24 6)">
            <tspan x="268" y="26">2%</tspan>
        </text>
        <text fill="#A5A5A5" font-family="HelveticaNeue, Helvetica Neue" font-size="18" transform="translate(24 6)">
            <tspan x="239" y="17">3%</tspan>
        </text>
        <g transform="translate(139 138)">
            <circle cx="68" cy="68" r="68" fill="#FFF" stroke="#979797" stroke-opacity=".221"/>
            <text fill="#A5A5A5" font-family="HelveticaNeue, Helvetica Neue" font-size="18" transform="translate(41 33)">
                <tspan x="2.664" y="17">Brand </tspan> <tspan x="5.175" y="38">Color </tspan> <tspan x="1.17" y="59">Usage</tspan>
            </text>
        </g>
    </g>
</svg>
