<svg xmlns="http://www.w3.org/2000/svg" width="344" height="116" viewBox="0 0 344 116">
  <g fill="none" fill-rule="evenodd">
    <g fill="#EF3340">
      <polyline points="175.016 35.11 186.634 35.11 186.634 29.286 175.016 29.286 175.016 21.522 189.446 21.522 189.446 15.697 169.023 15.697 169.023 49.671 175.016 49.671 175.016 35.11"/>
      <path d="M199.338532,20.6207211 C200.604268,19.2897997 200.604268,17.0560309 199.338532,15.7235528 C198.074276,14.3926314 195.953873,14.3926314 194.688138,15.7235528 C193.422402,17.0560309 193.422402,19.2897997 194.688138,20.6207211 C195.953873,21.9531992 198.074276,21.9531992 199.338532,20.6207211"/>
      <polygon points="194.156 25.211 199.872 25.211 199.872 49.672 194.156 49.672"/>
      <polygon points="206.139 15.309 211.854 15.309 211.854 49.671 206.139 49.671"/>
      <path d="M243.898036 24.8220744C240.948103 24.8220744 238.59703 26.5203613 236.798976 29.8686795 235.833409 26.5203613 233.296023 24.8220744 230.300253 24.8220744 227.672669 24.8220744 225.411793 26.2775265 223.613739 29.1417317L223.613739 25.2096761 217.898708 25.2096761 217.898708 49.6706115 223.613739 49.6706115 223.613739 40.6919507C223.613739 33.7026673 225.688303 29.9667474 228.639714 29.9667474 230.529445 29.9667474 231.496491 31.0828534 231.496491 33.3648778L231.496491 49.6706115 237.21448 49.6706115 237.21448 40.1580255C237.21448 33.5579004 239.289044 29.9667474 242.238976 29.9667474 244.130186 29.9667474 245.100189 31.0828534 245.100189 33.3648778L245.100189 49.6706115 250.81522 49.6706115 250.81522 32.345283C250.81522 27.6364673 248.187637 24.8220744 243.898036 24.8220744M180.96319 83.3328063L175.016008 83.3328063 175.016008 74.3058899 180.96319 74.3058899C183.775606 74.3058899 185.205473 75.8095976 185.205473 78.8185698 185.205473 81.8290985 183.775606 83.3328063 180.96319 83.3328063L180.96319 83.3328063zM181.193861 68.4809681L169.022987 68.4809681 169.022987 102.45449 175.016008 102.45449 175.016008 89.157728 181.193861 89.157728C187.787218 89.157728 191.290171 85.0310932 191.290171 78.8185698 191.290171 72.6060463 187.787218 68.4809681 181.193861 68.4809681L181.193861 68.4809681zM201.345078 81.9738654L201.345078 77.9935541 195.627089 77.9935541 195.627089 102.45449 201.345078 102.45449 201.345078 93.7669192C201.345078 86.3417784 203.925344 82.9919036 207.568769 82.9919036 208.444138 82.9919036 209.272189 83.236295 209.965682 83.6721523L211.025883 78.091622C210.010042 77.7507193 209.088835 77.6059524 208.214945 77.6059524 205.494205 77.6059524 203.004137 79.2077281 201.345078 81.9738654M229.79455 95.563274C228.734349 96.9704705 227.351799 97.6989749 225.552266 97.6989749 223.755691 97.6989749 222.371663 96.9704705 221.311461 95.563274 220.25126 94.1062653 219.744079 92.3114671 219.744079 90.2240218 219.744079 88.1365766 220.25126 86.3417784 221.311461 84.9345819 222.371663 83.4775732 223.755691 82.7490688 225.552266 82.7490688 227.351799 82.7490688 228.734349 83.4775732 229.79455 84.9345819 230.85623 86.3417784 231.361933 88.1365766 231.361933 90.2240218 231.361933 92.3114671 230.85623 94.1062653 229.79455 95.563274L229.79455 95.563274zM225.552266 77.6059524C221.91032 77.6059524 219.052065 78.8185698 216.933141 81.1986621 214.81126 83.5756411 213.751059 86.5846132 213.751059 90.2240218 213.751059 93.8649871 214.81126 96.9222149 216.933141 99.3007505 219.052065 101.67773 221.91032 102.843648 225.552266 102.843648 229.195692 102.843648 232.053947 101.67773 234.174349 99.3007505 236.294752 96.9222149 237.354953 93.8649871 237.354953 90.2240218 237.354953 86.5846132 236.294752 83.5756411 234.174349 81.1986621 232.053947 78.8185698 229.195692 77.6059524 225.552266 77.6059524L225.552266 77.6059524zM242.749115 100.368601C242.749115 104.688258 240.996899 106.483057 237.354953 107.454396L238.737503 112.742279C245.376699 111.143617 248.464146 107.259817 248.464146 99.6400966L248.464146 77.9935541 242.749115 77.9935541 242.749115 100.368601M259.057287 87.4111855C259.471312 84.836514 261.362522 82.7506254 264.081783 82.7506254 266.756684 82.7506254 268.414265 84.3041455 269.060441 87.4111855L259.057287 87.4111855 259.057287 87.4111855zM264.081783 77.6059524C256.105876 77.6059524 252.925272 84.4006567 252.925272 90.2240218 252.925272 96.0489436 256.105876 102.842091 264.081783 102.842091 269.153596 102.842091 272.656549 100.465112 274.637957 95.7080409L270.028965 93.9132427C268.646415 96.4349887 266.756684 97.6989749 264.404131 97.6989749 261.086012 97.6989749 259.057287 95.1258601 258.918292 92.1667002L274.915945 92.1667002 274.915945 89.6916533C274.915945 86.9239593 274.086415 84.0613107 272.425877 81.682775 270.765339 79.2061715 267.769568 77.6059524 264.081783 77.6059524L264.081783 77.6059524zM290.143215 82.7506254C292.49281 82.7506254 294.336703 84.1095663 295.581737 86.7776358L300.69791 84.5952359C298.899856 79.9346758 295.398382 77.6059524 290.143215 77.6059524 286.49979 77.6059524 283.73469 78.8201264 281.750325 81.1971054 279.768917 83.5771977 278.800392 86.5846132 278.800392 90.2240218 278.800392 93.8649871 279.768917 96.8739592 281.750325 99.2509383 283.73469 101.629474 286.49979 102.843648 290.143215 102.843648 295.398382 102.843648 298.899856 100.514924 300.69791 95.8543644L295.581737 93.6704079C294.336703 96.340034 292.49281 97.6989749 290.143215 97.6989749 286.638784 97.6989749 284.793413 94.6900027 284.793413 90.2240218 284.793413 85.7595976 286.638784 82.7506254 290.143215 82.7506254M318.486223 97.1152374C317.792731 97.5043957 317.056356 97.6989749 316.272665 97.6989749 314.24394 97.6989749 313.229577 96.6311244 313.229577 93.7186636L313.229577 83.1397838 319.361592 83.1397838 319.361592 77.9935541 313.229577 77.9935541 313.229577 68.0949231 307.514545 71.8790986 307.514545 77.9935541 303.916959 77.9935541 303.916959 83.1397838 307.514545 83.1397838 307.514545 93.8151748C307.514545 99.7848635 310.695149 102.843648 316.041994 102.843648 317.380184 102.843648 318.623739 102.552557 319.822935 101.96882L318.486223 97.1152374M54.195949 29.9667474C51.4781668 29.9667474 49.586957 32.052636 49.1729315 34.6273074L59.1760853 34.6273074C58.5313883 31.5202674 56.87085 29.9667474 54.195949 29.9667474"/>
      <path d="M130.276107 47.6812342C128.754563 49.2830098 126.773155 50.0582132 124.328926 50.0582132 122.115367 50.0582132 120.179798 49.3810777 118.566577 48.0688358 116.951877 46.7581506 115.79852 45.2061872 115.107984 43.4596447L119.671138 40.8849732C120.593823 43.556156 122.161206 44.9150968 124.328926 44.9150968 126.218657 44.9150968 127.185702 44.0402689 127.185702 42.2937264 127.185702 41.5169664 126.818994 40.8849732 125.942147 40.4506726 125.528121 40.2047245 125.0653 40.011702 124.652753 39.8669351 123.867583 39.4777767 122.252883 38.9438515 121.377515 38.5562498 118.427582 37.2455646 116.675367 35.4507664 116.675367 31.9561247 116.675367 29.9651907 117.36886 28.3167161 118.75141 26.907963 120.132481 25.5007665 121.930535 24.8220744 124.098254 24.8220744 127.185702 24.8220744 129.90792 26.4222934 131.382147 28.800829L127.969393 32.1024482C126.910671 30.6952518 125.619798 29.9651907 124.098254 29.9651907 122.946376 29.9651907 121.977852 30.6952518 121.977852 32.0043803 121.977852 33.0239751 122.714226 33.7991785 124.189931 34.3813594L125.85047 35.0133525 127.831878 35.7418569C128.201544 35.8866238 128.754563 36.2275264 129.492416 36.6633838 130.276107 37.1007977 130.827649 37.4883994 131.149997 37.9258134 131.84349 38.750829 132.581343 40.2047245 132.581343 41.9061247 132.581343 44.1865924 131.796173 46.0794585 130.276107 47.6812342L130.276107 47.6812342zM110.864222 49.6706115L105.146233 49.6706115 105.146233 45.7385558C103.256502 48.6027611 100.858111 50.0597698 97.9540173 50.0597698 93.6688525 50.0597698 90.8091186 47.486655 90.8091186 42.681328L90.8091186 25.2096761 96.525629 25.2096761 96.525629 40.8849732C96.525629 43.556156 97.6316688 44.9150968 99.8437483 44.9150968 102.796638 44.9150968 105.146233 41.127808 105.146233 34.9650969L105.146233 25.2096761 110.864222 25.2096761 110.864222 49.6706115 110.864222 49.6706115zM83.5222683 47.6812342C82.002203 49.2830098 80.0178375 50.0582132 77.5750865 50.0582132 75.363007 50.0582132 73.4259587 49.3810777 71.8127376 48.0688358 70.1980378 46.7581506 69.0461595 45.2061872 68.3541453 43.4596447L72.9187774 40.8849732C73.8399843 43.556156 75.4073669 44.9150968 77.5750865 44.9150968 79.4633389 44.9150968 80.4318631 44.0402689 80.4318631 42.2937264 80.4318631 41.5169664 80.063676 40.8849732 79.1883077 40.4506726 78.7728034 40.2047245 78.3114606 40.011702 77.897435 39.8669351 77.1137437 39.4777767 75.5005226 38.9438515 74.6236756 38.5562498 71.6737433 37.2455646 69.9200492 35.4507664 69.9200492 31.9561247 69.9200492 29.9651907 70.6135421 28.3167161 71.9960918 26.907963 73.3771628 25.5007665 75.1766955 24.8220744 77.3429365 24.8220744 80.4318631 24.8220744 83.1526026 26.4222934 84.6283081 28.800829L81.2155544 32.1024482C80.1553531 30.6952518 78.8659592 29.9651907 77.3429365 29.9651907 76.1925368 29.9651907 75.2240127 30.6952518 75.2240127 32.0043803 75.2240127 33.0239751 75.9603868 33.7991785 77.4360922 34.3813594L79.0966306 35.0133525 81.0780387 35.7418569C81.4477044 35.8866238 82.002203 36.2275264 82.738577 36.6633838 83.5222683 37.1007977 84.0752882 37.4883994 84.3976367 37.9258134 85.0896509 38.750829 85.826025 40.2047245 85.826025 41.9061247 85.826025 44.1865924 85.0423337 46.0794585 83.5222683 47.6812342L83.5222683 47.6812342zM65.03159 39.3812655L49.0339371 39.3812655C49.1729315 42.341982 51.2016568 44.9150968 54.5182975 44.9150968 56.8723287 44.9150968 58.7620597 43.6511106 60.1446094 41.1293647L64.7550801 42.9257195C62.7721932 47.6827908 59.2692411 50.0582132 54.195949 50.0582132 46.2229992 50.0582132 43.0409168 43.2650655 43.0409168 37.4401438 43.0409168 31.615222 46.2229992 24.8220744 54.195949 24.8220744 57.8852127 24.8220744 60.8824622 26.42385 62.5430005 28.8988969 64.2020602 31.2774326 65.03159 34.1400812 65.03159 36.9062186L65.03159 39.3812655 65.03159 39.3812655zM37.8271518 37.7327908C37.8271518 46.5168725 34.2325225 50.0597698 27.547488 50.0597698 21.9699719 50.0597698 18.2792295 46.7581506 17.5901727 41.2741316L23.4915159 39.9634463C23.9972186 42.8276516 25.3797683 44.2348481 27.547488 44.2348481 30.3140661 44.2348481 31.8356101 42.681328 31.8356101 38.4099263L31.8356101 15.6986467 37.8271518 15.6986467 37.8271518 37.7327908 37.8271518 37.7327908zM142.488384.501235918L7.68165325.501235918C3.67891305.501235918.431769538 3.91804598.431769538 8.13340892L.431769538 66.5227234C.431769538 69.9442034 2.59505322 72.9485056 5.72686103 73.8715892L146.260452 115.329403C148.006753 115.843092 149.738267 114.462359 149.738267 112.55237L149.738267 8.13340892C149.738267 3.91804598 146.492602.501235918 142.488384.501235918L142.488384.501235918zM243.281433 68.5074309C242.015698 69.839909 242.015698 72.0736777 243.281433 73.4045992 244.547169 74.7370773 246.667571 74.7370773 247.933307 73.4045992 249.197563 72.0736777 249.197563 69.839909 247.933307 68.5074309 246.667571 67.1765094 244.547169 67.1765094 243.281433 68.5074309"/>
    </g>
    <path fill="#EF3340" d="M333.975,80 C328.525,80 324.5,75.8 324.5,70.25 C324.5,64.7 328.525,60.5 333.975,60.5 C339.425,60.5 343.45,64.7 343.45,70.25 C343.45,75.8 339.425,80 333.975,80 Z M333.975,78.1 C338.475,78.1 341.5,74.7 341.5,70.25 C341.5,65.8 338.475,62.4 333.975,62.4 C329.475,62.4 326.45,65.8 326.45,70.25 C326.45,74.7 329.475,78.1 333.975,78.1 Z M330.4,75.5 L330.4,64.925 L334.225,64.925 C336.375,64.925 337.6,66.125 337.6,67.975 C337.6,69.575 336.6,70.65 335.275,70.925 L338.325,75.5 L336.35,75.5 L333.375,71.025 L332.25,71.025 L332.25,75.5 L330.4,75.5 Z M332.25,69.45 L334.125,69.45 C335.25,69.45 335.775,68.875 335.775,67.975 C335.775,67.05 335.25,66.5 334.125,66.5 L332.25,66.5 L332.25,69.45 Z"/>
  </g>
</svg>
